<svg xmlns="http://www.w3.org/2000/svg" width="96" height="96" viewBox="0 0 96 96">
  <path fill-rule="evenodd" d="M57.0325278,5.86058961 C63.0123004,10.0703354 69.6530877,13.2519585 76.6809048,15.2741917 L76.7488149,15.2937326 C83.0854531,17.1170812 87.5800118,22.7429032 87.9592118,29.3257439 C88.3782068,36.5994187 90.0188419,43.7506406 92.8123255,50.4795597 L92.8156139,50.4874809 C95.344023,56.5778908 93.7380655,63.6014091 88.8140911,67.9877996 L88.7813479,68.0169681 C83.3339726,72.8696163 78.739224,78.6016892 75.1883762,84.9745671 C71.9722289,90.7467419 65.4723633,93.8712256 58.9558076,92.7775585 L58.9121281,92.7702278 C51.6878214,91.5577796 44.3119616,91.5577796 37.087655,92.7702278 L37.0439755,92.7775585 C30.5274197,93.8712256 24.0275541,90.7467419 20.8114068,84.9745671 C17.2605591,78.6016892 12.6658104,72.8696163 7.21843515,68.0169681 L7.18569194,67.9877996 C2.26171757,63.6014091 0.655760028,56.5778908 3.18416911,50.4874809 L3.18745754,50.4795597 C5.98094112,43.7506406 7.62157623,36.5994187 8.04057124,29.3257439 C8.41977122,22.7429032 12.9143299,17.1170812 19.2509681,15.2937326 L19.3188782,15.2741917 C26.3466953,13.2519585 32.9874827,10.0703354 38.9672552,5.86058961 C44.3850567,2.04647013 51.6147263,2.04647013 57.0325278,5.86058961 Z M56.4026081,16.7156288 L56.0936275,16.7649156 L51.609648,17.5403488 C49.3078404,17.9384099 46.9591472,17.9798005 44.6468229,17.6641075 L44.0695477,17.5777448 L39.5780154,16.8468267 C34.7289028,16.0577187 29.9062036,18.3316878 27.4444885,22.5362713 L27.2905866,22.80726 L25.1044396,26.7774124 C23.9755221,28.8275831 22.5332962,30.6896108 20.8302722,32.2973332 L20.4326609,32.6638017 L17.0576613,35.7006324 C13.4156203,38.9777474 12.1957398,44.142411 13.9626041,48.6766383 L14.0820747,48.9714291 L15.8399735,53.1466951 C16.7477453,55.3027855 17.3122732,57.5851948 17.5142866,59.9118403 L17.5544611,60.4495064 L17.8374376,64.9672905 C18.1430751,69.8468627 21.4480237,74.0186106 26.1205705,75.4682314 L26.4143707,75.55527 L30.7925816,76.7915891 C33.053472,77.4300192 35.1996527,78.4141094 37.1545833,79.7076664 L37.6022914,80.0116566 L41.330157,82.6084105 C45.349097,85.4079207 50.6767951,85.4441517 54.7268726,82.7299308 L55.001004,82.5406083 L58.7026451,79.907007 C60.6141575,78.547026 62.7258731,77.491757 64.9616183,76.7781507 L65.4797266,76.6195542 L69.8453225,75.3398692 C74.5605191,73.9577059 77.9144605,69.8248164 78.2957138,64.9715881 L78.3156569,64.6673418 L78.5533168,60.1469756 C78.6760434,57.8126768 79.163129,55.5126878 79.9961271,53.3292783 L80.1944895,52.8275215 L81.9104329,48.6350265 C83.7621475,44.1108073 82.6081223,38.9311944 79.0381627,35.6084471 L78.8019201,35.3944047 L75.3966361,32.3912015 C73.6381613,30.8403596 72.1338315,29.0275891 70.9368179,27.0185283 L70.6660635,26.5514443 L68.440214,22.6031736 C66.03716,18.3405729 61.2426878,16.008308 56.4026081,16.7156288 Z M48.4998915,25.9980052 C61.4785831,25.9980052 71.9998915,36.5193136 71.9998915,49.4980052 C71.9998915,62.4766969 61.4785831,72.9980052 48.4998915,72.9980052 C35.5211999,72.9980052 24.9998915,62.4766969 24.9998915,49.4980052 C24.9998915,36.5193136 35.5211999,25.9980052 48.4998915,25.9980052 Z M34.6020795,38.5546072 C32.0836662,40.6151271 31.6587899,44.2857999 33.5979018,46.8621123 L33.7517316,47.0580861 L43.8231601,59.3676099 L43.8963193,59.455375 C46.2769824,62.2586589 50.5865081,62.2929848 53.0144087,59.5583528 L53.1769869,59.3676099 L63.2484155,47.0580861 L63.3110682,46.9802321 C65.3539348,44.3991248 64.9552257,40.6468274 62.3980676,38.5546072 C59.8796544,36.4940873 56.1975342,36.8044902 54.0562205,39.2153648 L53.8945887,39.4049551 L48.4998497,45.9982539 L43.1055584,39.4049551 L43.0416525,39.3281264 C40.9161843,36.8146023 37.1592375,36.462387 34.6020795,38.5546072 Z"/>
</svg>
